<svg xmlns="http://www.w3.org/2000/svg" viewBox="0 0 100 100">
  <defs>
    <radialGradient id="fmBody" cx="38%" cy="32%" r="78%">
      <stop offset="0%" stop-color="#FFEFB2"/>
      <stop offset="22%" stop-color="#FFCE63"/>
      <stop offset="50%" stop-color="#F49E2D"/>
      <stop offset="78%" stop-color="#DD7314"/>
      <stop offset="100%" stop-color="#B14E08"/>
    </radialGradient>
    <radialGradient id="fmBlush" cx="75%" cy="55%" r="45%">
      <stop offset="0%" stop-color="#D33D0C" stop-opacity="0.42"/>
      <stop offset="100%" stop-color="#D33D0C" stop-opacity="0"/>
    </radialGradient>
    <linearGradient id="fmLeaf" x1="0" y1="0" x2="1" y2="1">
      <stop offset="0%" stop-color="#7CB85E"/>
      <stop offset="60%" stop-color="#509B3D"/>
      <stop offset="100%" stop-color="#367A26"/>
    </linearGradient>
  </defs>
  <!-- mango body: plump asymmetric -->
  <path d="M50 24 C 32 24, 19 38, 19 58 C 19 80, 33 92, 54 92 C 74 92, 86 77, 86 58 C 86 39, 70 24, 50 24 Z" fill="url(#fmBody)"/>
  <!-- right-side blush -->
  <path d="M50 24 C 32 24, 19 38, 19 58 C 19 80, 33 92, 54 92 C 74 92, 86 77, 86 58 C 86 39, 70 24, 50 24 Z" fill="url(#fmBlush)"/>
  <!-- small stem -->
  <path d="M50 24 C 49.5 21, 49.8 18, 51 16 C 52.3 17.2, 52.8 20, 52 24 Z" fill="#6F4F2E"/>
  <!-- leaf on the LEFT -->
  <path d="M44 18 C 34 12, 22 14, 20 22 C 24 28, 38 28, 46 21 Z" fill="url(#fmLeaf)"/>
  <path d="M22 22 C 30 23, 40 22, 45 19" stroke="#2F5A1F" stroke-width="0.6" fill="none" opacity="0.5"/>
</svg>
